<svg  viewBox="0 0 587 118" fill="none" xmlns="http://www.w3.org/2000/svg">
<g filter="url(#filter0_d_2_7)">
<path d="M131.06 76.8125L141.466 17H155.857L143.341 89H130.497L131.06 76.8125ZM102.654 64.625L102.747 63.5938C103.122 60.5 103.826 57.375 104.857 54.2188C105.919 51.0625 107.357 48.1875 109.169 45.5938C110.982 43 113.216 40.9375 115.872 39.4062C118.56 37.875 121.747 37.1719 125.435 37.2969C128.591 37.4219 131.169 38.3438 133.169 40.0625C135.201 41.75 136.779 43.9062 137.904 46.5312C139.029 49.125 139.794 51.8906 140.201 54.8281C140.638 57.7344 140.81 60.4531 140.716 62.9844L140.529 64.7656C140.029 67.4531 139.201 70.2969 138.044 73.2969C136.919 76.2656 135.435 79.0312 133.591 81.5938C131.747 84.1562 129.56 86.2188 127.029 87.7812C124.497 89.3438 121.622 90.0781 118.404 89.9844C114.997 89.8906 112.201 89.0625 110.013 87.5C107.826 85.9375 106.138 83.9062 104.951 81.4062C103.794 78.875 103.044 76.1562 102.701 73.25C102.388 70.3125 102.372 67.4375 102.654 64.625ZM117.091 63.5469L116.997 64.5312C116.872 65.7812 116.794 67.1875 116.763 68.75C116.732 70.3125 116.857 71.8281 117.138 73.2969C117.451 74.7656 118.044 76 118.919 77C119.826 78 121.138 78.5469 122.857 78.6406C125.232 78.7031 127.216 78.1406 128.81 76.9531C130.404 75.7656 131.654 74.2344 132.56 72.3594C133.497 70.4531 134.107 68.4844 134.388 66.4531L135.044 61.4844C135.201 60.1406 135.232 58.7344 135.138 57.2656C135.076 55.7969 134.826 54.4375 134.388 53.1875C133.951 51.9062 133.232 50.8438 132.232 50C131.263 49.1562 129.904 48.7188 128.154 48.6875C126.216 48.625 124.576 49.0625 123.232 50C121.888 50.9375 120.794 52.1719 119.951 53.7031C119.138 55.2344 118.513 56.875 118.076 58.625C117.638 60.3438 117.31 61.9844 117.091 63.5469ZM183.841 76.0156L190.404 38.2812H204.747L195.935 89H182.576L183.841 76.0156ZM186.794 66.3594L190.732 66.2656C190.388 69.1719 189.732 72.0625 188.763 74.9375C187.826 77.7812 186.513 80.3438 184.826 82.625C183.169 84.9062 181.091 86.7188 178.591 88.0625C176.122 89.4062 173.201 90.0469 169.826 89.9844C167.044 89.9219 164.701 89.3906 162.794 88.3906C160.888 87.3906 159.357 86.0156 158.201 84.2656C157.076 82.5156 156.31 80.5156 155.904 78.2656C155.529 76.0156 155.466 73.625 155.716 71.0938L161.201 38.2812H175.497L169.919 71.2812C169.826 72.25 169.826 73.1719 169.919 74.0469C170.044 74.9219 170.294 75.6875 170.669 76.3438C171.044 77 171.576 77.5312 172.263 77.9375C172.982 78.3125 173.904 78.5156 175.029 78.5469C177.56 78.6719 179.622 78.1719 181.216 77.0469C182.841 75.8906 184.091 74.375 184.966 72.5C185.872 70.5938 186.482 68.5469 186.794 66.3594ZM225.935 49.9062L219.091 89H204.794L213.607 38.2812H226.966L225.935 49.9062ZM222.044 61.8594L218.81 62C219.122 58.9688 219.779 55.9688 220.779 53C221.779 50.0312 223.154 47.3594 224.904 44.9844C226.685 42.5781 228.872 40.6875 231.466 39.3125C234.06 37.9062 237.107 37.2344 240.607 37.2969C243.419 37.3906 245.732 38 247.544 39.125C249.388 40.2188 250.794 41.6875 251.763 43.5312C252.763 45.3438 253.404 47.4062 253.685 49.7188C253.966 52 253.966 54.375 253.685 56.8438L248.341 89H233.951L239.388 56.7031C239.544 55.1719 239.497 53.7969 239.247 52.5781C238.997 51.3594 238.419 50.4219 237.513 49.7656C236.638 49.0781 235.326 48.7031 233.576 48.6406C231.701 48.6094 230.091 48.9844 228.747 49.7656C227.404 50.5156 226.279 51.5469 225.372 52.8594C224.466 54.1406 223.747 55.5781 223.216 57.1719C222.716 58.7344 222.326 60.2969 222.044 61.8594ZM285.794 76.9062L289.216 54.9688C289.341 53.7188 289.294 52.5469 289.076 51.4531C288.888 50.3594 288.419 49.4688 287.669 48.7812C286.919 48.0625 285.81 47.6875 284.341 47.6562C283.06 47.625 281.919 47.8594 280.919 48.3594C279.951 48.8281 279.154 49.5156 278.529 50.4219C277.935 51.3281 277.513 52.3906 277.263 53.6094L262.919 53.7031C263.076 50.8281 263.857 48.3438 265.263 46.25C266.701 44.1562 268.529 42.4531 270.747 41.1406C272.966 39.7969 275.388 38.8125 278.013 38.1875C280.638 37.5625 283.216 37.2812 285.747 37.3438C289.279 37.4062 292.466 38.1562 295.31 39.5938C298.154 41 300.326 43.0312 301.826 45.6875C303.357 48.3125 303.951 51.5 303.607 55.25L300.185 76.5312C299.904 78.375 299.654 80.3281 299.435 82.3906C299.247 84.4219 299.544 86.3281 300.326 88.1094L300.279 89L286.263 89.0469C285.638 87.1094 285.326 85.1094 285.326 83.0469C285.326 80.9531 285.482 78.9062 285.794 76.9062ZM290.81 58.0625L289.497 66.125L283.122 66.0781C281.872 66.1094 280.638 66.2969 279.419 66.6406C278.201 66.9531 277.107 67.4531 276.138 68.1406C275.169 68.7969 274.357 69.6406 273.701 70.6719C273.044 71.6719 272.638 72.8594 272.482 74.2344C272.326 75.2344 272.404 76.125 272.716 76.9062C273.06 77.6562 273.576 78.25 274.263 78.6875C274.951 79.125 275.794 79.3594 276.794 79.3906C278.263 79.4219 279.685 79.1562 281.06 78.5938C282.466 78 283.685 77.1719 284.716 76.1094C285.747 75.0156 286.451 73.7656 286.826 72.3594L289.591 78.5469C288.81 80.2656 287.872 81.8281 286.779 83.2344C285.685 84.6406 284.451 85.8594 283.076 86.8906C281.701 87.8906 280.169 88.6719 278.482 89.2344C276.826 89.7969 275.013 90.0625 273.044 90.0312C270.232 89.9688 267.654 89.3125 265.31 88.0625C262.997 86.7812 261.154 85.0312 259.779 82.8125C258.404 80.5938 257.779 78.0312 257.904 75.125C258.029 71.75 258.857 68.9688 260.388 66.7812C261.919 64.5625 263.904 62.8125 266.341 61.5312C268.779 60.25 271.435 59.3438 274.31 58.8125C277.185 58.2812 280.044 58.0156 282.888 58.0156L290.81 58.0625ZM329.763 78.5938C331.326 78.625 332.701 78.3438 333.888 77.75C335.076 77.125 336.029 76.25 336.747 75.125C337.497 74 337.997 72.7031 338.247 71.2344L351.701 71.1875C351.451 75.0938 350.247 78.4688 348.091 81.3125C345.966 84.125 343.247 86.2969 339.935 87.8281C336.654 89.3281 333.122 90.0312 329.341 89.9375C325.685 89.875 322.544 89.1562 319.919 87.7812C317.294 86.375 315.154 84.5 313.497 82.1562C311.872 79.7812 310.732 77.0625 310.076 74C309.419 70.9375 309.247 67.7344 309.56 64.3906L309.747 63.125C310.122 59.5625 310.966 56.2188 312.279 53.0938C313.591 49.9375 315.341 47.1719 317.529 44.7969C319.747 42.3906 322.372 40.5312 325.404 39.2188C328.435 37.875 331.841 37.25 335.622 37.3438C339.622 37.4062 343.029 38.3125 345.841 40.0625C348.654 41.7812 350.794 44.1406 352.263 47.1406C353.732 50.1094 354.435 53.5312 354.372 57.4062L340.919 57.3594C340.951 55.9219 340.779 54.5469 340.404 53.2344C340.06 51.9219 339.404 50.8594 338.435 50.0469C337.497 49.2031 336.185 48.75 334.497 48.6875C332.56 48.625 330.951 49.0469 329.669 49.9531C328.388 50.8281 327.357 52.0156 326.576 53.5156C325.794 54.9844 325.201 56.5781 324.794 58.2969C324.419 59.9844 324.154 61.5938 323.997 63.125L323.904 64.3438C323.779 65.625 323.669 67.0781 323.576 68.7031C323.513 70.2969 323.622 71.8438 323.904 73.3438C324.216 74.8438 324.81 76.0781 325.685 77.0469C326.591 78.0156 327.951 78.5312 329.763 78.5938ZM376.638 50.8906L370.029 89H355.732L364.544 38.2812H377.904L376.638 50.8906ZM393.185 37.8594L391.404 51.5C390.591 51.375 389.794 51.2656 389.013 51.1719C388.232 51.0781 387.435 51.0312 386.622 51.0312C384.841 51 383.232 51.2188 381.794 51.6875C380.388 52.125 379.154 52.7969 378.091 53.7031C377.06 54.6094 376.201 55.7344 375.513 57.0781C374.826 58.3906 374.31 59.8906 373.966 61.5781L371.341 60.2656C371.685 57.8594 372.216 55.3281 372.935 52.6719C373.654 49.9844 374.654 47.4688 375.935 45.125C377.247 42.75 378.919 40.8438 380.951 39.4062C383.013 37.9375 385.544 37.2031 388.544 37.2031C389.326 37.2031 390.091 37.2656 390.841 37.3906C391.622 37.5156 392.404 37.6719 393.185 37.8594ZM407.154 82.4375L427.497 38.2812H443.294L413.576 96.6406C412.701 98.5469 411.701 100.281 410.576 101.844C409.451 103.438 408.169 104.812 406.732 105.969C405.326 107.156 403.716 108.062 401.904 108.688C400.122 109.312 398.122 109.625 395.904 109.625C394.779 109.625 393.669 109.516 392.576 109.297C391.482 109.109 390.404 108.891 389.341 108.641L390.419 97.9531C390.732 98.0156 391.06 98.0469 391.404 98.0469C391.716 98.0781 392.013 98.0938 392.294 98.0938C393.732 98.0938 395.013 97.9219 396.138 97.5781C397.263 97.2656 398.263 96.7344 399.138 95.9844C400.013 95.2344 400.779 94.2344 401.435 92.9844L407.154 82.4375ZM410.388 38.2812L414.419 75.125L413.529 89.9375L404.06 90.4531L395.529 38.2812H410.388ZM460.169 48.8281L449.81 108.5H435.513L447.701 38.2812H460.919L460.169 48.8281ZM488.294 62.7969L488.154 63.7812C487.81 66.8438 487.107 69.9375 486.044 73.0625C484.982 76.1562 483.544 79 481.732 81.5938C479.951 84.1875 477.732 86.2656 475.076 87.8281C472.419 89.3594 469.294 90.0781 465.701 89.9844C462.544 89.8906 459.935 89.0469 457.872 87.4531C455.841 85.8281 454.247 83.7656 453.091 81.2656C451.935 78.7344 451.138 76.0312 450.701 73.1562C450.263 70.2812 450.076 67.5625 450.138 65L450.372 63.0312C450.872 60.2188 451.669 57.2969 452.763 54.2656C453.888 51.2344 455.357 48.4219 457.169 45.8281C458.982 43.2344 461.154 41.1406 463.685 39.5469C466.216 37.9531 469.154 37.2031 472.497 37.2969C475.966 37.3906 478.81 38.2188 481.029 39.7812C483.247 41.3125 484.919 43.3281 486.044 45.8281C487.201 48.3281 487.935 51.0625 488.247 54.0312C488.56 57 488.576 59.9219 488.294 62.7969ZM473.904 63.7344L473.997 62.7031C474.091 61.4844 474.154 60.0938 474.185 58.5312C474.247 56.9375 474.122 55.4062 473.81 53.9375C473.497 52.4688 472.888 51.2344 471.982 50.2344C471.107 49.2344 469.779 48.7031 467.997 48.6406C466.091 48.5781 464.466 48.8906 463.122 49.5781C461.779 50.2656 460.654 51.2188 459.747 52.4375C458.841 53.6562 458.122 55.0312 457.591 56.5625C457.091 58.0938 456.716 59.6875 456.466 61.3438L455.81 66.5C455.622 68.375 455.654 70.2344 455.904 72.0781C456.185 73.8906 456.857 75.4219 457.919 76.6719C459.013 77.8906 460.685 78.5312 462.935 78.5938C464.872 78.6562 466.497 78.2188 467.81 77.2812C469.154 76.3125 470.232 75.0625 471.044 73.5312C471.888 72 472.529 70.375 472.966 68.6562C473.404 66.9062 473.716 65.2656 473.904 63.7344ZM525.138 38.2812L523.31 48.5469H494.107L495.888 38.2812H525.138ZM504.747 25.7188H519.044L510.888 73.2031C510.763 74.2969 510.763 75.2031 510.888 75.9219C511.044 76.6406 511.388 77.2031 511.919 77.6094C512.482 77.9844 513.341 78.2031 514.497 78.2656C515.185 78.2969 515.857 78.2812 516.513 78.2188C517.169 78.125 517.826 78.0469 518.482 77.9844L517.451 88.7188C516.169 89.125 514.857 89.4219 513.513 89.6094C512.201 89.7969 510.857 89.8906 509.482 89.8906C506.388 89.8281 503.826 89.1875 501.794 87.9688C499.763 86.7188 498.294 84.9688 497.388 82.7188C496.513 80.4375 496.216 77.7812 496.497 74.75L504.747 25.7188ZM524.107 64.4375L524.201 63.4531C524.607 59.8281 525.497 56.4219 526.872 53.2344C528.247 50.0469 530.076 47.25 532.357 44.8438C534.638 42.4375 537.326 40.5625 540.419 39.2188C543.513 37.875 546.982 37.25 550.826 37.3438C554.513 37.4062 557.701 38.1406 560.388 39.5469C563.107 40.9219 565.326 42.7969 567.044 45.1719C568.763 47.5469 569.982 50.2656 570.701 53.3281C571.419 56.3906 571.622 59.6406 571.31 63.0781L571.216 64.1094C570.81 67.7031 569.904 71.0781 568.497 74.2344C567.091 77.3906 565.247 80.1562 562.966 82.5312C560.685 84.9062 557.997 86.7656 554.904 88.1094C551.81 89.4219 548.357 90.0312 544.544 89.9375C540.888 89.875 537.701 89.1562 534.982 87.7812C532.294 86.4062 530.091 84.5469 528.372 82.2031C526.654 79.8594 525.435 77.1719 524.716 74.1406C523.997 71.1094 523.794 67.875 524.107 64.4375ZM538.497 63.4531L538.404 64.4375C538.31 65.8438 538.263 67.3594 538.263 68.9844C538.294 70.5781 538.513 72.1094 538.919 73.5781C539.357 75.0469 540.076 76.25 541.076 77.1875C542.107 78.0938 543.544 78.5781 545.388 78.6406C547.388 78.7031 549.076 78.2969 550.451 77.4219C551.826 76.5469 552.951 75.375 553.826 73.9062C554.732 72.4062 555.419 70.7969 555.888 69.0781C556.388 67.3594 556.716 65.6875 556.872 64.0625L556.966 63.0781C557.091 61.7031 557.138 60.2031 557.107 58.5781C557.107 56.9219 556.888 55.3594 556.451 53.8906C556.044 52.3906 555.326 51.1719 554.294 50.2344C553.263 49.2656 551.826 48.75 549.982 48.6875C547.982 48.625 546.279 49.0469 544.872 49.9531C543.497 50.8594 542.372 52.0625 541.497 53.5625C540.622 55.0625 539.951 56.6875 539.482 58.4375C539.013 60.1562 538.685 61.8281 538.497 63.4531Z" fill="#C3FAFE"/>
<path d="M131.06 76.8125L130.075 76.6411L130.064 76.7033L130.061 76.7664L131.06 76.8125ZM141.466 17V16H140.625L140.481 16.8286L141.466 17ZM155.857 17L156.842 17.1713L157.046 16H155.857V17ZM143.341 89V90H144.182L144.326 89.1713L143.341 89ZM130.497 89L129.499 88.9539L129.45 90H130.497V89ZM102.654 64.625L103.649 64.7245L103.65 64.7155L102.654 64.625ZM102.747 63.5938L101.755 63.4734L101.753 63.4883L101.752 63.5032L102.747 63.5938ZM104.857 54.2188L103.909 53.8997L103.906 53.9082L104.857 54.2188ZM115.872 39.4062L115.377 38.5374L115.373 38.5399L115.872 39.4062ZM125.435 37.2969L125.475 36.2976L125.469 36.2974L125.435 37.2969ZM133.169 40.0625L132.518 40.8209L132.524 40.8264L132.53 40.8317L133.169 40.0625ZM137.904 46.5312L136.985 46.9252L136.986 46.9292L137.904 46.5312ZM140.201 54.8281L139.21 54.9651L139.212 54.977L140.201 54.8281ZM140.716 62.9844L141.711 63.0891L141.714 63.0553L141.716 63.0214L140.716 62.9844ZM140.529 64.7656L141.512 64.9485L141.519 64.9096L141.523 64.8703L140.529 64.7656ZM138.044 73.2969L137.111 72.9372L137.109 72.9425L138.044 73.2969ZM118.404 89.9844L118.433 88.9848L118.431 88.9848L118.404 89.9844ZM104.951 81.4062L104.041 81.8217L104.044 81.8286L104.047 81.8353L104.951 81.4062ZM102.701 73.25L101.706 73.3558L101.708 73.3675L102.701 73.25ZM117.091 63.5469L116.101 63.4082L116.098 63.4301L116.096 63.4521L117.091 63.5469ZM116.997 64.5312L117.993 64.6308L117.993 64.6261L116.997 64.5312ZM117.138 73.2969L116.156 73.4849L116.158 73.495L116.16 73.505L117.138 73.2969ZM118.919 77L118.167 77.6585L118.173 77.6651L118.178 77.6715L118.919 77ZM122.857 78.6406L122.802 79.6391L122.816 79.6399L122.831 79.6403L122.857 78.6406ZM132.56 72.3594L131.663 71.918L131.66 71.9242L132.56 72.3594ZM134.388 66.4531L135.379 66.5903L135.379 66.5841L134.388 66.4531ZM135.044 61.4844L136.036 61.6153L136.037 61.6076L136.038 61.5999L135.044 61.4844ZM135.138 57.2656L134.139 57.3081L134.139 57.3187L134.14 57.3293L135.138 57.2656ZM134.388 53.1875L133.442 53.5107L133.444 53.5178L134.388 53.1875ZM132.232 50L131.575 50.7541L131.581 50.7592L131.587 50.7643L132.232 50ZM128.154 48.6875L128.121 49.687L128.129 49.6872L128.136 49.6873L128.154 48.6875ZM119.951 53.7031L119.075 53.2205L119.071 53.2274L119.067 53.2344L119.951 53.7031ZM118.076 58.625L119.045 58.8717L119.046 58.8675L118.076 58.625ZM132.045 76.9839L142.451 17.1714L140.481 16.8286L130.075 76.6411L132.045 76.9839ZM141.466 18H155.857V16H141.466V18ZM154.872 16.8287L142.356 88.8287L144.326 89.1713L156.842 17.1713L154.872 16.8287ZM143.341 88H130.497V90H143.341V88ZM131.496 89.0461L132.059 76.8586L130.061 76.7664L129.499 88.9539L131.496 89.0461ZM103.65 64.7155L103.743 63.6843L101.752 63.5032L101.658 64.5345L103.65 64.7155ZM103.74 63.7141C104.107 60.689 104.795 57.6277 105.807 54.5293L103.906 53.9082C102.856 57.1223 102.138 60.311 101.755 63.4734L103.74 63.7141ZM105.805 54.5378C106.838 51.467 108.234 48.6782 109.989 46.1665L108.35 45.021C106.48 47.6968 105 50.658 103.909 53.8997L105.805 54.5378ZM109.989 46.1665C111.72 43.689 113.847 41.7283 116.372 40.2726L115.373 38.5399C112.586 40.1467 110.243 42.311 108.35 45.021L109.989 46.1665ZM116.368 40.2751C118.866 38.8518 121.863 38.1764 125.401 38.2963L125.469 36.2974C121.632 36.1674 118.254 36.8982 115.377 38.5374L116.368 40.2751ZM125.395 38.2961C128.372 38.414 130.721 39.2767 132.518 40.8209L133.821 39.3041C131.618 37.4108 128.81 36.4298 125.475 36.2977L125.395 38.2961ZM132.53 40.8317C134.43 42.4099 135.917 44.4336 136.985 46.9252L138.823 46.1373C137.641 43.3789 135.971 41.0901 133.808 39.2933L132.53 40.8317ZM136.986 46.9292C138.073 49.4357 138.816 52.1131 139.21 54.9651L141.191 54.6911C140.773 51.6681 139.984 48.8143 138.821 46.1333L136.986 46.9292ZM139.212 54.977C139.641 57.8313 139.808 60.4872 139.717 62.9474L141.716 63.0214C141.812 60.4191 141.635 57.6375 141.189 54.6793L139.212 54.977ZM139.722 62.8797L139.534 64.6609L141.523 64.8703L141.711 63.0891L139.722 62.8797ZM139.546 64.5827C139.059 67.2005 138.249 69.9848 137.111 72.9372L138.977 73.6565C140.152 70.609 140.999 67.7058 141.512 64.9485L139.546 64.5827ZM137.109 72.9425C136.015 75.8301 134.572 78.5185 132.779 81.0097L134.403 82.1778C136.298 79.544 137.824 76.7011 138.979 73.6512L137.109 72.9425ZM132.779 81.0097C131.008 83.4719 128.916 85.4412 126.503 86.9303L127.554 88.6322C130.204 86.9963 132.487 84.8406 134.403 82.1778L132.779 81.0097ZM126.503 86.9303C124.152 88.3817 121.473 89.0733 118.433 88.9848L118.375 90.9839C121.772 91.0829 124.843 90.3058 127.554 88.6322L126.503 86.9303ZM118.431 88.9848C115.171 88.895 112.581 88.1056 110.594 86.6863L109.432 88.3137C111.82 90.0194 114.824 90.8862 118.376 90.984L118.431 88.9848ZM110.594 86.6863C108.549 85.2255 106.971 83.3284 105.854 80.9772L104.047 81.8353C105.305 84.4841 107.102 86.6495 109.432 88.3137L110.594 86.6863ZM105.86 80.9908C104.749 78.5587 104.026 75.9411 103.694 73.1325L101.708 73.3675C102.063 76.3714 102.839 79.1913 104.041 81.8217L105.86 80.9908ZM103.695 73.1442C103.389 70.2719 103.375 67.4657 103.649 64.7245L101.659 64.5255C101.37 67.4093 101.387 70.3531 101.706 73.3558L103.695 73.1442ZM116.096 63.4521L116.002 64.4364L117.993 64.6261L118.087 63.6417L116.096 63.4521ZM116.002 64.4317C115.874 65.7136 115.795 67.147 115.763 68.73L117.763 68.77C117.794 67.228 117.871 65.8489 117.993 64.6308L116.002 64.4317ZM115.763 68.73C115.731 70.3592 115.861 71.9446 116.156 73.4849L118.12 73.1088C117.853 71.7116 117.733 70.2658 117.763 68.77L115.763 68.73ZM116.16 73.505C116.503 75.1186 117.165 76.5141 118.167 77.6585L119.672 76.3415C118.923 75.4859 118.398 74.4127 118.116 73.0888L116.16 73.505ZM118.178 77.6715C119.307 78.9165 120.897 79.5352 122.802 79.6391L122.911 77.6421C121.38 77.5586 120.345 77.0835 119.66 76.3285L118.178 77.6715ZM122.831 79.6403C125.384 79.7075 127.601 79.1013 129.407 77.755L128.212 76.1512C126.832 77.1799 125.079 77.6988 122.883 77.641L122.831 79.6403ZM129.407 77.755C131.136 76.4668 132.488 74.8072 133.46 72.7945L131.66 71.9242C130.82 73.6615 129.671 75.0645 128.212 76.1512L129.407 77.755ZM133.457 72.8007C134.44 70.8022 135.082 68.731 135.379 66.5903L133.398 66.316C133.131 68.2377 132.555 70.1041 131.663 71.9181L133.457 72.8007ZM135.379 66.5841L136.036 61.6153L134.053 61.3534L133.397 66.3222L135.379 66.5841ZM136.038 61.5999C136.201 60.1917 136.233 58.7253 136.136 57.2019L134.14 57.3293C134.23 58.7435 134.2 60.0895 134.051 61.3689L136.038 61.5999ZM136.137 57.2231C136.071 55.6669 135.805 54.2094 135.332 52.8572L133.444 53.5178C133.846 54.6656 134.08 55.9269 134.139 57.3081L136.137 57.2231ZM135.334 52.8644C134.84 51.4177 134.02 50.2006 132.877 49.2357L131.587 50.7643C132.443 51.4869 133.061 52.3948 133.442 53.5106L135.334 52.8644ZM132.889 49.2459C131.687 48.1996 130.072 47.7216 128.172 47.6877L128.136 49.6873C129.736 49.7159 130.839 50.1129 131.575 50.7541L132.889 49.2459ZM128.186 47.688C126.074 47.6199 124.211 48.0975 122.66 49.1799L123.804 50.8201C124.94 50.0275 126.359 49.6301 128.121 49.687L128.186 47.688ZM122.66 49.1799C121.182 50.2109 119.987 51.5642 119.075 53.2205L120.826 54.1857C121.601 52.7796 122.594 51.6641 123.804 50.8201L122.66 49.1799ZM119.067 53.2344C118.215 54.8401 117.562 56.557 117.105 58.3825L119.046 58.8675C119.464 57.193 120.061 55.6286 120.834 54.1718L119.067 53.2344ZM117.106 58.3783C116.661 60.1284 116.325 61.8052 116.101 63.4082L118.082 63.6855C118.295 62.1635 118.615 60.5591 119.045 58.8717L117.106 58.3783ZM183.841 76.0156L182.856 75.8443L182.85 75.8813L182.846 75.9186L183.841 76.0156ZM190.404 38.2812V37.2812H189.563L189.419 38.1099L190.404 38.2812ZM204.747 38.2812L205.733 38.4524L205.936 37.2812H204.747V38.2812ZM195.935 89V90H196.776L196.92 89.1712L195.935 89ZM182.576 89L181.58 88.903L181.473 90H182.576V89ZM186.794 66.3594L186.771 65.3597L185.924 65.3798L185.804 66.218L186.794 66.3594ZM190.732 66.2656L191.725 66.3831L191.86 65.2385L190.708 65.2659L190.732 66.2656ZM188.763 74.9375L187.815 74.6182L187.813 74.6244L188.763 74.9375ZM184.826 82.625L184.022 82.0303L184.016 82.0375L184.826 82.625ZM178.591 88.0625L178.118 87.1817L178.113 87.1842L178.591 88.0625ZM169.826 89.9844L169.803 90.9841L169.807 90.9842L169.826 89.9844ZM158.201 84.2656L157.359 84.8064L157.366 84.8169L158.201 84.2656ZM155.904 78.2656L154.917 78.43L154.92 78.4433L155.904 78.2656ZM155.716 71.0938L154.73 70.9289L154.724 70.962L154.721 70.9955L155.716 71.0938ZM161.201 38.2812V37.2812H160.354L160.214 38.1164L161.201 38.2812ZM175.497 38.2812L176.483 38.4479L176.681 37.2812H175.497V38.2812ZM169.919 71.2812L168.933 71.1146L168.927 71.1496L168.924 71.1849L169.919 71.2812ZM169.919 74.0469L168.925 74.1534L168.927 74.1709L168.929 74.1883L169.919 74.0469ZM172.263 77.9375L171.754 78.7984L171.777 78.8119L171.801 78.8241L172.263 77.9375ZM175.029 78.5469L175.078 77.5481L175.067 77.5476L175.056 77.5473L175.029 78.5469ZM181.216 77.0469L181.793 77.8638L181.796 77.8617L181.216 77.0469ZM184.966 72.5L184.063 72.0706L184.06 72.0771L184.966 72.5ZM184.826 76.187L191.389 38.4526L189.419 38.1099L182.856 75.8443L184.826 76.187ZM190.404 39.2812H204.747V37.2812H190.404V39.2812ZM203.762 38.1101L194.95 88.8288L196.92 89.1712L205.733 38.4524L203.762 38.1101ZM195.935 88H182.576V90H195.935V88ZM183.571 89.097L184.837 76.1126L182.846 75.9186L181.58 88.903L183.571 89.097ZM186.818 67.3591L190.756 67.2653L190.708 65.2659L186.771 65.3597L186.818 67.3591ZM189.739 66.1482C189.403 68.9833 188.763 71.8063 187.815 74.6182L189.711 75.2568C190.701 72.3187 191.373 69.3605 191.725 66.3831L189.739 66.1482ZM187.813 74.6244C186.907 77.3727 185.642 79.8392 184.022 82.0303L185.63 83.2197C187.384 80.8483 188.744 78.1898 189.713 75.2506L187.813 74.6244ZM184.016 82.0375C182.449 84.1961 180.486 85.9087 178.118 87.1817L179.065 88.9433C181.696 87.5288 183.89 85.6164 185.635 83.2125L184.016 82.0375ZM178.113 87.1842C175.825 88.4299 173.081 89.0445 169.844 88.9845L169.807 90.9842C173.321 91.0493 176.42 90.3826 179.069 88.9408L178.113 87.1842ZM169.848 88.9846C167.177 88.9246 164.995 88.4156 163.259 87.5051L162.33 89.2762C164.407 90.3656 166.911 90.9191 169.803 90.9841L169.848 88.9846ZM163.259 87.5051C161.498 86.5814 160.096 85.3197 159.035 83.7144L157.366 84.8169C158.618 86.7116 160.278 88.1999 162.33 89.2762L163.259 87.5051ZM159.042 83.7249C157.995 82.0958 157.273 80.2216 156.888 78.0879L154.92 78.4433C155.347 80.8097 156.157 82.9354 157.359 84.8064L159.042 83.7249ZM156.89 78.1012C156.531 75.9473 156.469 73.6456 156.711 71.192L154.721 70.9955C154.463 73.6044 154.526 76.0839 154.917 78.43L156.89 78.1012ZM156.703 71.2586L162.187 38.4461L160.214 38.1164L154.73 70.9289L156.703 71.2586ZM161.201 39.2812H175.497V37.2812H161.201V39.2812ZM174.511 38.1146L168.933 71.1146L170.905 71.4479L176.483 38.4479L174.511 38.1146ZM168.924 71.1849C168.824 72.2141 168.823 73.2043 168.925 74.1534L170.914 73.9403C170.828 73.1394 170.827 72.2859 170.915 71.3776L168.924 71.1849ZM168.929 74.1883C169.069 75.1673 169.354 76.0573 169.801 76.8399L171.538 75.8476C171.235 75.3177 171.019 74.6764 170.909 73.9055L168.929 74.1883ZM169.801 76.8399C170.267 77.6555 170.926 78.309 171.754 78.7984L172.772 77.0766C172.225 76.7535 171.822 76.3445 171.538 75.8476L169.801 76.8399ZM171.801 78.8241C172.695 79.291 173.78 79.5126 175.001 79.5465L175.056 77.5473C174.028 77.5187 173.268 77.334 172.726 77.0509L171.801 78.8241ZM174.979 79.5457C177.667 79.6784 179.968 79.1517 181.793 77.8638L180.64 76.2299C179.277 77.192 177.453 77.6654 175.078 77.5481L174.979 79.5457ZM181.796 77.8617C183.567 76.6013 184.927 74.9484 185.872 72.9229L184.06 72.0771C183.255 73.8016 182.115 75.1799 180.636 76.2321L181.796 77.8617ZM185.869 72.9294C186.821 70.9279 187.458 68.7834 187.784 66.5008L185.804 66.218C185.505 68.3104 184.924 70.2596 184.063 72.0706L185.869 72.9294ZM225.935 49.9062L226.92 50.0787L226.927 50.0369L226.931 49.9946L225.935 49.9062ZM219.091 89V90H219.931L220.076 89.1724L219.091 89ZM204.794 89L203.809 88.8288L203.606 90H204.794V89ZM213.607 38.2812V37.2812H212.766L212.622 38.1101L213.607 38.2812ZM226.966 38.2812L227.962 38.3696L228.059 37.2812H226.966V38.2812ZM222.044 61.8594L222.088 62.8584L222.887 62.8237L223.029 62.0365L222.044 61.8594ZM218.81 62L217.815 61.8974L217.696 63.0494L218.853 62.9991L218.81 62ZM224.904 44.9844L224.1 44.3894L224.099 44.3912L224.904 44.9844ZM231.466 39.3125L231.935 40.1961L231.943 40.1916L231.466 39.3125ZM240.607 37.2969L240.64 36.2974L240.632 36.2972L240.625 36.297L240.607 37.2969ZM247.544 39.125L247.017 39.9746L247.026 39.9799L247.034 39.9851L247.544 39.125ZM251.763 43.5312L250.878 43.9964L250.883 44.0054L250.888 44.0143L251.763 43.5312ZM253.685 49.7188L252.692 49.8395L252.692 49.8411L253.685 49.7188ZM253.685 56.8438L254.671 57.0077L254.676 56.9824L254.679 56.9569L253.685 56.8438ZM248.341 89V90H249.189L249.328 89.1639L248.341 89ZM233.951 89L232.964 88.834L232.768 90H233.951V89ZM239.388 56.7031L240.374 56.8691L240.38 56.837L240.383 56.8046L239.388 56.7031ZM237.513 49.7656L236.895 50.5519L236.911 50.5641L236.927 50.5756L237.513 49.7656ZM233.576 48.6406L233.611 47.6413L233.602 47.6409L233.592 47.6408L233.576 48.6406ZM228.747 49.7656L229.235 50.6388L229.242 50.6345L229.25 50.6301L228.747 49.7656ZM225.372 52.8594L226.189 53.4369L226.195 53.4276L225.372 52.8594ZM223.216 57.1719L222.267 56.8556L222.264 56.8671L223.216 57.1719ZM224.95 49.7338L218.106 88.8276L220.076 89.1724L226.92 50.0787L224.95 49.7338ZM219.091 88H204.794V90H219.091V88ZM205.78 89.1712L214.592 38.4524L212.622 38.1101L203.809 88.8288L205.78 89.1712ZM213.607 39.2812H226.966V37.2812H213.607V39.2812ZM225.97 38.1929L224.939 49.8179L226.931 49.9946L227.962 38.3696L225.97 38.1929ZM222.001 60.8603L218.767 61.0009L218.853 62.9991L222.088 62.8584L222.001 60.8603ZM219.805 62.1026C220.109 59.1471 220.749 56.2197 221.726 53.3192L219.831 52.6808C218.808 55.7178 218.136 58.7904 217.815 61.8974L219.805 62.1026ZM221.726 53.3192C222.695 50.4425 224.024 47.8642 225.709 45.5776L224.099 44.3912C222.284 46.8546 220.862 49.62 219.831 52.6808L221.726 53.3192ZM225.707 45.5794C227.402 43.2907 229.475 41.4997 231.935 40.196L230.998 38.429C228.269 39.8753 225.968 41.8656 224.1 44.3894L225.707 45.5794ZM231.943 40.1916C234.359 38.8817 237.229 38.2367 240.589 38.2967L240.625 36.297C236.984 36.232 233.761 36.9308 230.99 38.4334L231.943 40.1916ZM240.574 38.2963C243.265 38.386 245.393 38.9669 247.017 39.9746L248.072 38.2754C246.07 37.0331 243.573 36.3952 240.64 36.2974L240.574 38.2963ZM247.034 39.9851C248.724 40.9873 249.998 42.3214 250.878 43.9964L252.648 43.0661C251.591 41.0536 250.053 39.4502 248.055 38.2649L247.034 39.9851ZM250.888 44.0143C251.818 45.7015 252.425 47.6383 252.692 49.8395L254.678 49.598C254.383 47.1742 253.708 44.986 252.639 43.0482L250.888 44.0143ZM252.692 49.8411C252.963 52.0381 252.964 54.3338 252.691 56.7306L254.679 56.9569C254.968 54.4162 254.969 51.9619 254.677 49.5964L252.692 49.8411ZM252.699 56.6798L247.355 88.8361L249.328 89.1639L254.671 57.0077L252.699 56.6798ZM248.341 88H233.951V90H248.341V88ZM234.937 89.166L240.374 56.8691L238.402 56.5371L232.964 88.834L234.937 89.166ZM240.383 56.8046C240.547 55.1953 240.502 53.7157 240.227 52.3772L238.268 52.7791C238.493 53.878 238.542 55.1484 238.393 56.6016L240.383 56.8046ZM240.227 52.3772C239.933 50.9431 239.232 49.7755 238.1 48.9557L236.927 50.5756C237.607 51.0683 238.062 51.7757 238.268 52.7791L240.227 52.3772ZM238.131 48.9793C237.018 48.1051 235.46 47.7073 233.611 47.6413L233.54 49.64C235.191 49.699 236.258 50.0511 236.895 50.5519L238.131 48.9793ZM233.592 47.6408C231.573 47.6071 229.776 48.011 228.245 48.9011L229.25 50.6301C230.407 49.9577 231.828 49.6116 233.559 49.6405L233.592 47.6408ZM228.26 48.8924C226.778 49.7198 225.54 50.8574 224.55 52.2912L226.195 53.4276C227.018 52.2364 228.03 51.3114 229.235 50.6388L228.26 48.8924ZM224.556 52.2819C223.589 53.6487 222.828 55.1754 222.268 56.8556L224.165 57.4881C224.667 55.9809 225.343 54.6325 226.189 53.4368L224.556 52.2819ZM222.264 56.8671C221.751 58.47 221.349 60.0751 221.06 61.6822L223.029 62.0365C223.302 60.5186 223.682 58.9987 224.169 57.4767L222.264 56.8671ZM285.794 76.9062L286.782 77.0606L286.782 77.0604L285.794 76.9062ZM289.216 54.9688L290.204 55.1229L290.209 55.0957L290.211 55.0683L289.216 54.9688ZM289.076 51.4531L288.09 51.6221L288.092 51.6357L288.095 51.6492L289.076 51.4531ZM287.669 48.7812L286.977 49.5032L286.985 49.5109L286.994 49.5184L287.669 48.7812ZM284.341 47.6562L284.317 48.656L284.32 48.656L284.341 47.6562ZM280.919 48.3594L281.355 49.2596L281.367 49.2538L280.919 48.3594ZM278.529 50.4219L277.706 49.8541L277.699 49.8639L277.692 49.8738L278.529 50.4219ZM277.263 53.6094L277.27 54.6094L278.08 54.6041L278.243 53.8103L277.263 53.6094ZM262.919 53.7031L261.921 53.6489L261.863 54.71L262.926 54.7031L262.919 53.7031ZM265.263 46.25L264.439 45.684L264.433 45.6924L265.263 46.25ZM270.747 41.1406L271.257 42.0014L271.266 41.996L270.747 41.1406ZM285.747 37.3438L285.723 38.3435L285.73 38.3436L285.747 37.3438ZM295.31 39.5938L294.859 40.4862L294.867 40.4901L295.31 39.5938ZM301.826 45.6875L300.955 46.1793L300.962 46.1914L301.826 45.6875ZM303.607 55.25L304.594 55.4088L304.6 55.3752L304.603 55.3413L303.607 55.25ZM300.185 76.5312L299.198 76.3725L299.196 76.3805L300.185 76.5312ZM299.435 82.3906L298.44 82.2851L298.439 82.2987L299.435 82.3906ZM300.326 88.1094L301.324 88.1619L301.337 87.925L301.241 87.7077L300.326 88.1094ZM300.279 89L300.282 90L301.228 89.9968L301.277 89.0526L300.279 89ZM286.263 89.0469L285.311 89.3539L285.536 90.0493L286.266 90.0469L286.263 89.0469ZM290.81 58.0625L291.797 58.2232L291.985 57.0694L290.816 57.0625L290.81 58.0625ZM289.497 66.125L289.49 67.125L290.347 67.1313L290.484 66.2857L289.497 66.125ZM283.122 66.0781L283.13 65.0782L283.114 65.078L283.097 65.0784L283.122 66.0781ZM279.419 66.6406L279.668 67.6093L279.679 67.6063L279.691 67.6031L279.419 66.6406ZM276.138 68.1406L276.699 68.9685L276.708 68.9624L276.717 68.9561L276.138 68.1406ZM273.701 70.6719L274.537 71.2206L274.544 71.2087L273.701 70.6719ZM272.482 74.2344L273.47 74.3887L273.473 74.3681L273.475 74.3473L272.482 74.2344ZM272.716 76.9062L271.788 77.2776L271.797 77.3005L271.807 77.3229L272.716 76.9062ZM276.794 79.3906L276.763 80.3902L276.773 80.3904L276.794 79.3906ZM281.06 78.5938L281.439 79.5194L281.449 79.515L281.06 78.5938ZM284.716 76.1094L285.434 76.8058L285.439 76.8007L285.444 76.7954L284.716 76.1094ZM286.826 72.3594L287.739 71.9513L286.587 69.3743L285.859 72.1017L286.826 72.3594ZM289.591 78.5469L290.502 78.9607L290.688 78.5503L290.504 78.1388L289.591 78.5469ZM283.076 86.8906L283.664 87.6994L283.67 87.695L283.676 87.6906L283.076 86.8906ZM278.482 89.2344L278.166 88.2857L278.16 88.2875L278.482 89.2344ZM273.044 90.0312L273.022 91.031L273.028 91.0311L273.044 90.0312ZM265.31 88.0625L264.825 88.9372L264.832 88.9411L264.839 88.9449L265.31 88.0625ZM257.904 75.125L258.903 75.168L258.903 75.162L257.904 75.125ZM260.388 66.7812L261.207 67.3547L261.211 67.3493L260.388 66.7812ZM282.888 58.0156L282.894 57.0156H282.888V58.0156ZM286.782 77.0604L290.204 55.1229L288.228 54.8146L284.806 76.7521L286.782 77.0604ZM290.211 55.0683C290.345 53.7318 290.297 52.4594 290.056 51.257L288.095 51.6492C288.292 52.6343 288.338 53.7057 288.221 54.8692L290.211 55.0683ZM290.061 51.2842C289.84 49.993 289.274 48.8952 288.345 48.0441L286.994 49.5184C287.565 50.0423 287.936 50.7258 288.09 51.6221L290.061 51.2842ZM288.361 48.0593C287.367 47.1068 285.978 46.6909 284.362 46.6565L284.32 48.656C285.642 48.6841 286.471 49.0182 286.977 49.5032L288.361 48.0593ZM284.366 46.6565C282.945 46.6219 281.639 46.8818 280.472 47.4649L281.367 49.2538C282.2 48.837 283.175 48.6281 284.317 48.656L284.366 46.6565ZM280.484 47.4592C279.356 48.0051 278.426 48.8088 277.706 49.8541L279.352 50.9896C279.881 50.2224 280.546 49.6511 281.355 49.2595L280.484 47.4592ZM277.692 49.8738C277.02 50.9002 276.555 52.0841 276.283 53.4084L278.243 53.8103C278.471 52.6971 278.85 51.7561 279.365 50.9699L277.692 49.8738ZM277.257 52.6094L262.913 52.7031L262.926 54.7031L277.27 54.6094L277.257 52.6094ZM263.918 53.7574C264.066 51.0363 264.801 48.7316 266.093 46.8076L264.433 45.6924C262.913 47.9559 262.085 50.6199 261.921 53.6489L263.918 53.7574ZM266.087 46.816C267.441 44.8441 269.161 43.2408 271.257 42.0013L270.238 40.2799C267.896 41.6654 265.96 43.4684 264.439 45.684L266.087 46.816ZM271.266 41.996C273.392 40.7082 275.717 39.7622 278.245 39.1603L277.781 37.2147C275.06 37.8628 272.541 38.8856 270.229 40.2853L271.266 41.996ZM278.245 39.1603C280.791 38.554 283.283 38.2832 285.723 38.3434L285.772 36.3441C283.149 36.2793 280.485 36.571 277.781 37.2147L278.245 39.1603ZM285.73 38.3436C289.127 38.4037 292.164 39.1238 294.859 40.4862L295.761 38.7013C292.769 37.1887 289.431 36.4088 285.765 36.3439L285.73 38.3436ZM294.867 40.4901C297.538 41.8112 299.558 43.705 300.955 46.1792L302.696 45.1958C301.094 42.3575 298.769 40.1888 295.753 38.6974L294.867 40.4901ZM300.962 46.1914C302.365 48.5975 302.94 51.5658 302.611 55.1587L304.603 55.3413C304.961 51.4342 304.348 48.0275 302.689 45.1836L300.962 46.1914ZM302.62 55.0912L299.198 76.3725L301.172 76.69L304.594 55.4088L302.62 55.0912ZM299.196 76.3805C298.913 78.2408 298.661 80.2092 298.441 82.2852L300.429 82.4961C300.647 80.4471 300.895 78.5092 301.174 76.682L299.196 76.3805ZM298.439 82.2987C298.237 84.4901 298.557 86.567 299.41 88.511L301.241 87.7077C300.532 86.0892 300.258 84.3537 300.431 82.4825L298.439 82.2987ZM299.327 88.0568L299.28 88.9474L301.277 89.0526L301.324 88.1619L299.327 88.0568ZM300.275 88L286.26 88.0469L286.266 90.0469L300.282 90L300.275 88ZM287.215 88.7399C286.622 86.9029 286.326 85.0065 286.326 83.0469H284.326C284.326 85.2122 284.654 87.3159 285.311 89.3539L287.215 88.7399ZM286.326 83.0469C286.326 81.0031 286.478 79.0078 286.782 77.0606L284.806 76.7519C284.486 78.8047 284.326 80.9032 284.326 83.0469H286.326ZM289.823 57.9018L288.51 65.9643L290.484 66.2857L291.797 58.2232L289.823 57.9018ZM289.505 65.125L283.13 65.0782L283.115 67.0781L289.49 67.125L289.505 65.125ZM283.097 65.0784C281.763 65.1118 280.446 65.3121 279.148 65.6782L279.691 67.6031C280.83 67.2817 281.982 67.1069 283.147 67.0778L283.097 65.0784ZM279.171 65.672C277.841 66.013 276.634 66.5627 275.559 67.3251L276.717 68.9561C277.58 68.3436 278.56 67.8932 279.668 67.6093L279.171 65.672ZM275.577 67.3127C274.49 68.049 273.583 68.9937 272.857 70.135L274.544 71.2087C275.13 70.2876 275.848 69.5447 276.699 68.9685L275.577 67.3127ZM272.865 70.1232C272.11 71.2733 271.659 72.6153 271.488 74.1215L273.475 74.3473C273.617 73.1034 273.979 72.0705 274.537 71.2205L272.865 70.1232ZM271.494 74.08C271.315 75.2213 271.396 76.2987 271.788 77.2776L273.645 76.5349C273.411 75.9513 273.336 75.2474 273.47 74.3887L271.494 74.08ZM271.807 77.3229C272.23 78.2458 272.874 78.9888 273.726 79.5312L274.8 77.8438C274.277 77.5112 273.89 77.0667 273.625 76.4896L271.807 77.3229ZM273.726 79.5312C274.596 80.0848 275.624 80.3546 276.763 80.3901L276.826 78.3911C275.964 78.3642 275.305 78.1652 274.8 77.8438L273.726 79.5312ZM276.773 80.3904C278.38 80.4246 279.938 80.1331 281.439 79.5193L280.681 77.6682C279.432 78.1794 278.146 78.4192 276.816 78.3909L276.773 80.3904ZM281.449 79.515C282.975 78.8708 284.306 77.9675 285.434 76.8058L283.999 75.4129C283.064 76.3762 281.958 77.1292 280.671 77.6725L281.449 79.515ZM285.444 76.7954C286.585 75.585 287.373 74.1891 287.792 72.617L285.859 72.1017C285.529 73.3422 284.91 74.4463 283.989 75.4234L285.444 76.7954ZM285.913 72.7674L288.678 78.9549L290.504 78.1388L287.739 71.9513L285.913 72.7674ZM288.681 78.1331C287.93 79.7848 287.032 81.2795 285.989 82.6204L287.568 83.8483C288.713 82.3767 289.69 80.7464 290.502 78.9607L288.681 78.1331ZM285.989 82.6204C284.948 83.9591 283.777 85.1146 282.476 86.0906L283.676 87.6906C285.124 86.6041 286.422 85.3222 287.568 83.8483L285.989 82.6204ZM282.487 86.0819C281.199 87.0188 279.76 87.7541 278.166 88.2857L278.798 90.1831C280.578 89.5896 282.202 88.7624 283.664 87.6994L282.487 86.0819ZM278.16 88.2875C276.625 88.8088 274.929 89.061 273.06 89.0314L273.028 91.0311C275.098 91.064 277.026 90.785 278.803 90.1813L278.16 88.2875ZM273.067 89.0315C270.401 88.9723 267.978 88.3521 265.781 87.1801L264.839 88.9449C267.329 90.2729 270.063 90.9652 273.022 91.031L273.067 89.0315ZM265.795 87.1878C263.63 85.9883 261.912 84.3572 260.629 82.2857L258.929 83.3393C260.395 85.7053 262.365 87.5742 264.825 88.9372L265.795 87.1878ZM260.629 82.2857C259.371 80.2569 258.785 77.8975 258.903 75.168L256.905 75.082C256.772 78.165 257.436 80.9306 258.929 83.3393L260.629 82.2857ZM258.903 75.162C259.023 71.9287 259.812 69.3475 261.207 67.3547L259.569 66.2078C257.901 68.59 257.035 71.5713 256.904 75.088L258.903 75.162ZM261.211 67.3493C262.648 65.2665 264.509 63.6241 266.807 62.4164L265.876 60.6461C263.298 62.0009 261.19 63.8585 259.565 66.2132L261.211 67.3493ZM266.807 62.4164C269.15 61.1848 271.709 60.31 274.492 59.7959L274.128 57.8291C271.16 58.3775 268.408 59.3152 265.876 60.6461L266.807 62.4164ZM274.492 59.7959C277.308 59.2754 280.107 59.0156 282.888 59.0156V57.0156C279.982 57.0156 277.062 57.2871 274.128 57.8291L274.492 59.7959ZM282.882 59.0156L290.804 59.0625L290.816 57.0625L282.894 57.0156L282.882 59.0156ZM329.763 78.5938L329.729 79.5932L329.736 79.5934L329.743 79.5936L329.763 78.5938ZM333.888 77.75L334.335 78.6444L334.345 78.6398L334.354 78.6349L333.888 77.75ZM336.747 75.125L335.915 74.5703L335.91 74.5784L335.905 74.5866L336.747 75.125ZM338.247 71.2344L338.244 70.2344L337.403 70.2373L337.262 71.0666L338.247 71.2344ZM351.701 71.1875L352.699 71.2514L352.767 70.1838L351.697 70.1875L351.701 71.1875ZM348.091 81.3125L347.294 80.7083L347.293 80.7097L348.091 81.3125ZM339.935 87.8281L340.351 88.7376L340.355 88.7358L339.935 87.8281ZM329.341 89.9375L329.366 88.9378L329.358 88.9376L329.341 89.9375ZM319.919 87.7812L319.447 88.6628L319.455 88.6671L319.919 87.7812ZM313.497 82.1562L312.672 82.7209L312.676 82.7272L312.681 82.7334L313.497 82.1562ZM309.56 64.3906L308.571 64.2441L308.567 64.2707L308.564 64.2976L309.56 64.3906ZM309.747 63.125L310.737 63.2715L310.74 63.2507L310.742 63.2297L309.747 63.125ZM312.279 53.0938L313.201 53.481L313.202 53.4777L312.279 53.0938ZM317.529 44.7969L316.794 44.119L316.793 44.1194L317.529 44.7969ZM325.404 39.2188L325.801 40.1365L325.809 40.1329L325.404 39.2188ZM335.622 37.3438L335.598 38.3435L335.607 38.3436L335.622 37.3438ZM345.841 40.0625L345.313 40.9116L345.32 40.9158L345.841 40.0625ZM352.263 47.1406L351.365 47.5803L351.367 47.5841L352.263 47.1406ZM354.372 57.4062L354.369 58.4062L355.356 58.4097L355.372 57.4224L354.372 57.4062ZM340.919 57.3594L339.92 57.3376L339.897 58.3558L340.916 58.3594L340.919 57.3594ZM340.404 53.2344L339.436 53.4877L339.439 53.4984L339.442 53.5091L340.404 53.2344ZM338.435 50.0469L337.766 50.7902L337.779 50.8018L337.792 50.8131L338.435 50.0469ZM334.497 48.6875L334.534 47.6882L334.53 47.688L334.497 48.6875ZM329.669 49.9531L330.233 50.7789L330.24 50.7743L330.247 50.7695L329.669 49.9531ZM326.576 53.5156L327.458 53.9853L327.463 53.9776L326.576 53.5156ZM324.794 58.2969L323.821 58.0668L323.818 58.0799L324.794 58.2969ZM323.997 63.125L323.003 63.0235L323.001 63.0359L323 63.0483L323.997 63.125ZM323.904 64.3438L324.899 64.4408L324.9 64.4307L324.901 64.4204L323.904 64.3438ZM323.576 68.7031L322.577 68.6455L322.577 68.6547L322.576 68.6639L323.576 68.7031ZM323.904 73.3438L322.921 73.528L322.923 73.5379L322.925 73.5477L323.904 73.3438ZM325.685 77.0469L324.943 77.7172L324.949 77.7236L324.955 77.73L325.685 77.0469ZM329.743 79.5936C331.439 79.6275 332.979 79.3224 334.335 78.6444L333.441 76.8556C332.422 77.3651 331.212 77.6225 329.783 77.5939L329.743 79.5936ZM334.354 78.6349C335.694 77.9295 336.777 76.9354 337.59 75.6634L335.905 74.5866C335.28 75.5646 334.457 76.3205 333.422 76.8651L334.354 78.6349ZM337.58 75.6797C338.415 74.4265 338.962 72.995 339.233 71.4022L337.262 71.0666C337.033 72.4112 336.58 73.5735 335.915 74.5703L337.58 75.6797ZM338.251 72.2344L351.704 72.1875L351.697 70.1875L338.244 70.2344L338.251 72.2344ZM350.703 71.1236C350.464 74.8537 349.321 78.0361 347.294 80.7083L348.888 81.9167C351.174 78.9014 352.437 75.3338 352.699 71.2514L350.703 71.1236ZM347.293 80.7097C345.271 83.3863 342.684 85.4556 339.515 86.9204L340.355 88.7358C343.811 87.1381 346.661 84.8637 348.889 81.9153L347.293 80.7097ZM339.519 86.9186C336.383 88.3525 333.003 89.028 329.366 88.9378L329.316 90.9372C333.242 91.0345 336.925 90.3038 340.351 88.7376L339.519 86.9186ZM329.358 88.9376C325.822 88.8772 322.842 88.1832 320.383 86.8954L319.455 88.6671C322.247 90.1293 325.548 90.8728 329.324 90.9374L329.358 88.9376ZM320.392 86.8998C317.898 85.564 315.877 83.7912 314.314 81.5791L312.681 82.7334C314.43 85.2088 316.691 87.186 319.447 88.6627L320.392 86.8998ZM314.323 81.5916C312.777 79.3331 311.685 76.7371 311.053 73.7905L309.098 74.2095C309.779 77.3879 310.967 80.2294 312.672 82.7209L314.323 81.5916ZM311.053 73.7905C310.42 70.8343 310.252 67.7336 310.556 64.4837L308.564 64.2976C308.243 67.7352 308.419 71.0407 309.098 74.2095L311.053 73.7905ZM310.549 64.5372L310.737 63.2715L308.758 62.9785L308.571 64.2441L310.549 64.5372ZM310.742 63.2297C311.107 59.7589 311.928 56.5109 313.201 53.481L311.357 52.7065C310.004 55.9266 309.138 59.3661 308.753 63.0203L310.742 63.2297ZM313.202 53.4777C314.472 50.4231 316.161 47.7583 318.264 45.4743L316.793 44.1194C314.522 46.5854 312.71 49.4519 311.355 52.7098L313.202 53.4777ZM318.264 45.4748C320.387 43.1721 322.897 41.394 325.801 40.1364L325.006 38.3011C321.848 39.6685 319.108 41.6091 316.794 44.119L318.264 45.4748ZM325.809 40.1329C328.687 38.8571 331.943 38.2528 335.598 38.3434L335.647 36.3441C331.739 36.2472 328.183 36.8929 324.998 38.3046L325.809 40.1329ZM335.607 38.3436C339.463 38.4039 342.684 39.2756 345.313 40.9116L346.37 39.2134C343.374 37.3494 339.782 36.4086 335.638 36.3439L335.607 38.3436ZM345.32 40.9158C347.968 42.5339 349.979 44.7488 351.365 47.5803L353.161 46.7009C351.61 43.5325 349.34 41.0286 346.363 39.2092L345.32 40.9158ZM351.367 47.5841C352.754 50.3876 353.433 53.6473 353.373 57.3901L355.372 57.4224C355.437 53.4152 354.71 49.8311 353.159 46.6972L351.367 47.5841ZM354.376 56.4063L340.923 56.3594L340.916 58.3594L354.369 58.4062L354.376 56.4063ZM341.919 57.3811C341.952 55.8488 341.769 54.3735 341.365 52.9597L339.442 53.5091C339.788 54.7202 339.949 55.995 339.92 57.3376L341.919 57.3811ZM341.371 52.981C340.979 51.4835 340.217 50.2363 339.078 49.2807L337.792 50.8131C338.59 51.4825 339.141 52.3602 339.436 53.4877L341.371 52.981ZM339.104 49.3036C337.941 48.2569 336.376 47.7564 334.534 47.6882L334.46 49.6868C335.994 49.7436 337.054 50.1493 337.766 50.7902L339.104 49.3036ZM334.53 47.688C332.427 47.6202 330.589 48.0775 329.092 49.1367L330.247 50.7695C331.312 50.0163 332.693 49.6298 334.465 49.687L334.53 47.688ZM329.105 49.1273C327.676 50.1034 326.539 51.4211 325.689 53.0537L327.463 53.9776C328.175 52.6101 329.1 51.5529 330.233 50.7789L329.105 49.1273ZM325.693 53.046C324.869 54.5949 324.246 56.2698 323.821 58.0668L325.768 58.5269C326.155 56.8864 326.72 55.3738 327.458 53.9852L325.693 53.046ZM323.818 58.0799C323.436 59.801 323.163 61.4491 323.003 63.0235L324.992 63.2265C325.144 61.7384 325.403 60.1678 325.771 58.5138L323.818 58.0799ZM323 63.0483L322.907 64.2671L324.901 64.4204L324.995 63.2017L323 63.0483ZM322.908 64.2467C322.782 65.5439 322.672 67.0106 322.577 68.6455L324.574 68.7607C324.667 67.1456 324.776 65.7061 324.899 64.4408L322.908 64.2467ZM322.576 68.6639C322.511 70.3292 322.625 71.9511 322.921 73.528L324.887 73.1595C324.62 71.7364 324.515 70.2646 324.575 68.7423L322.576 68.6639ZM322.925 73.5477C323.267 75.191 323.93 76.5954 324.943 77.7172L326.427 76.3766C325.69 75.5608 325.165 74.4965 324.883 73.1398L322.925 73.5477ZM324.955 77.73C326.1 78.9544 327.751 79.525 329.729 79.5932L329.798 77.5943C328.15 77.5375 327.082 77.0769 326.415 76.3637L324.955 77.73ZM376.638 50.8906L377.623 51.0615L377.63 51.0262L377.633 50.9905L376.638 50.8906ZM370.029 89V90H370.87L371.014 89.1709L370.029 89ZM355.732 89L354.747 88.8288L354.543 90H355.732V89ZM364.544 38.2812V37.2812H363.703L363.559 38.1101L364.544 38.2812ZM377.904 38.2812L378.899 38.3811L379.009 37.2812H377.904V38.2812ZM393.185 37.8594L394.177 37.9889L394.293 37.0969L393.418 36.887L393.185 37.8594ZM391.404 51.5L391.252 52.4884L392.263 52.6439L392.395 51.6295L391.404 51.5ZM386.622 51.0312L386.605 52.0311L386.614 52.0312H386.622V51.0312ZM381.794 51.6875L382.091 52.6424L382.104 52.6382L381.794 51.6875ZM378.091 53.7031L377.442 52.9423L377.437 52.9471L377.431 52.952L378.091 53.7031ZM375.513 57.0781L376.399 57.5422L376.403 57.5336L375.513 57.0781ZM373.966 61.5781L373.519 62.4726L374.686 63.0559L374.946 61.7777L373.966 61.5781ZM371.341 60.2656L370.351 60.1242L370.249 60.8377L370.894 61.1601L371.341 60.2656ZM372.935 52.6719L373.9 52.9331L373.901 52.9302L372.935 52.6719ZM375.935 45.125L375.06 44.6413L375.058 44.6453L375.935 45.125ZM380.951 39.4062L381.528 40.2225L381.531 40.2208L380.951 39.4062ZM390.841 37.3906L390.677 38.377L390.683 38.3781L390.841 37.3906ZM375.653 50.7197L369.043 88.8291L371.014 89.1709L377.623 51.0615L375.653 50.7197ZM370.029 88H355.732V90H370.029V88ZM356.717 89.1712L365.53 38.4524L363.559 38.1101L354.747 88.8288L356.717 89.1712ZM364.544 39.2812H377.904V37.2812H364.544V39.2812ZM376.909 38.1814L375.643 50.7908L377.633 50.9905L378.899 38.3811L376.909 38.1814ZM392.193 37.7299L390.412 51.3705L392.395 51.6295L394.177 37.9889L392.193 37.7299ZM391.556 50.5116C390.733 50.385 389.925 50.2741 389.132 50.179L388.894 52.1648C389.664 52.2571 390.45 52.365 391.252 52.4884L391.556 50.5116ZM389.132 50.179C388.31 50.0804 387.474 50.0312 386.622 50.0312V52.0312C387.396 52.0312 388.154 52.0759 388.894 52.1648L389.132 50.179ZM386.64 50.0314C384.767 49.9985 383.044 50.228 381.484 50.7368L382.104 52.6382C383.419 52.2095 384.915 52.0015 386.605 52.0311L386.64 50.0314ZM381.497 50.7326C379.969 51.2081 378.613 51.9435 377.442 52.9423L378.74 54.464C379.694 53.6503 380.807 53.0419 382.091 52.6424L381.497 50.7326ZM377.431 52.952C376.296 53.9493 375.362 55.1779 374.623 56.6227L376.403 57.5336C377.039 56.2909 377.824 55.2695 378.751 54.4543L377.431 52.952ZM374.627 56.6141C373.89 58.0221 373.346 59.6135 372.986 61.3785L374.946 61.7777C375.274 60.1678 375.761 58.7591 376.399 57.5421L374.627 56.6141ZM374.413 60.6837L371.788 59.3712L370.894 61.1601L373.519 62.4726L374.413 60.6837ZM372.331 60.407C372.668 58.0461 373.191 55.555 373.9 52.9331L371.97 52.4107C371.242 55.1013 370.701 57.6727 370.351 60.1242L372.331 60.407ZM373.901 52.9302C374.6 50.3166 375.571 47.8756 376.812 45.6047L375.058 44.6453C373.736 47.0619 372.707 49.6522 371.969 52.4135L373.901 52.9302ZM376.81 45.6087C378.057 43.3534 379.631 41.5653 381.528 40.2225L380.373 38.59C378.208 40.1222 376.438 42.1466 375.06 44.6413L376.81 45.6087ZM381.531 40.2208C383.394 38.8937 385.713 38.2031 388.544 38.2031V36.2031C385.376 36.2031 382.632 36.9813 380.371 38.5917L381.531 40.2208ZM388.544 38.2031C389.272 38.2031 389.983 38.2613 390.677 38.377L391.006 36.4042C390.2 36.2699 389.379 36.2031 388.544 36.2031V38.2031ZM390.683 38.3781C391.439 38.499 392.195 38.6502 392.952 38.8318L393.418 36.887C392.613 36.6936 391.806 36.5323 390.999 36.4032L390.683 38.3781ZM407.154 82.4375L408.033 82.9142L408.048 82.8855L408.062 82.8559L407.154 82.4375ZM427.497 38.2812V37.2812H426.857L426.589 37.8628L427.497 38.2812ZM443.294 38.2812L444.185 38.735L444.926 37.2812H443.294V38.2812ZM413.576 96.6406L412.684 96.1868L412.675 96.205L412.667 96.2235L413.576 96.6406ZM410.576 101.844L409.764 101.259L409.759 101.267L410.576 101.844ZM406.732 105.969L406.105 105.19L406.096 105.197L406.087 105.205L406.732 105.969ZM401.904 108.688L401.578 107.742L401.573 107.744L401.904 108.688ZM392.576 109.297L392.772 108.316L392.758 108.314L392.745 108.311L392.576 109.297ZM389.341 108.641L388.346 108.54L388.258 109.413L389.112 109.614L389.341 108.641ZM390.419 97.9531L390.615 96.9725L389.535 96.7564L389.424 97.8528L390.419 97.9531ZM391.404 98.0469L391.503 97.0518L391.454 97.0469H391.404V98.0469ZM396.138 97.5781L395.87 96.6146L395.858 96.618L395.846 96.6218L396.138 97.5781ZM401.435 92.9844L400.556 92.5077L400.55 92.5195L401.435 92.9844ZM410.388 38.2812L411.382 38.1725L411.285 37.2812H410.388V38.2812ZM414.419 75.125L415.418 75.185L415.423 75.1004L415.413 75.0162L414.419 75.125ZM413.529 89.9375L413.583 90.936L414.473 90.8875L414.527 89.9975L413.529 89.9375ZM404.06 90.4531L403.073 90.6145L403.218 91.5005L404.114 91.4516L404.06 90.4531ZM395.529 38.2812V37.2812H394.352L394.542 38.4426L395.529 38.2812ZM408.062 82.8559L428.406 38.6997L426.589 37.8628L406.245 82.0191L408.062 82.8559ZM427.497 39.2812H443.294V37.2812H427.497V39.2812ZM442.403 37.8275L412.684 96.1868L414.467 97.0944L444.185 38.735L442.403 37.8275ZM412.667 96.2235C411.816 98.0761 410.848 99.7538 409.764 101.259L411.387 102.428C412.553 100.809 413.585 99.0176 414.484 97.0578L412.667 96.2235ZM409.759 101.267C408.684 102.789 407.466 104.095 406.105 105.19L407.359 106.748C408.873 105.53 410.217 104.086 411.393 102.42L409.759 101.267ZM406.087 105.205C404.779 106.309 403.278 107.156 401.578 107.742L402.23 109.633C404.154 108.969 405.873 108.003 407.377 106.733L406.087 105.205ZM401.573 107.744C399.915 108.326 398.029 108.625 395.904 108.625V110.625C398.216 110.625 400.33 110.299 402.235 109.631L401.573 107.744ZM395.904 108.625C394.844 108.625 393.8 108.522 392.772 108.316L392.379 110.277C393.538 110.509 394.713 110.625 395.904 110.625V108.625ZM392.745 108.311C391.671 108.127 390.613 107.912 389.57 107.667L389.112 109.614C390.195 109.869 391.293 110.092 392.407 110.282L392.745 108.311ZM390.336 108.741L391.414 98.0535L389.424 97.8528L388.346 108.54L390.336 108.741ZM390.223 98.9337C390.605 99.0101 390.999 99.0469 391.404 99.0469V97.0469C391.121 97.0469 390.859 97.0212 390.615 96.9725L390.223 98.9337ZM391.304 99.0419C391.646 99.0761 391.976 99.0938 392.294 99.0938V97.0938C392.05 97.0938 391.786 97.0802 391.503 97.0518L391.304 99.0419ZM392.294 99.0938C393.81 99.0938 395.192 98.9128 396.43 98.5345L395.846 96.6218C394.834 96.931 393.654 97.0938 392.294 97.0938V99.0938ZM396.406 98.5416C397.67 98.1905 398.801 97.5902 399.789 96.7436L398.487 95.2251C397.725 95.8785 396.856 96.3408 395.87 96.6146L396.406 98.5416ZM399.789 96.7436C400.779 95.895 401.618 94.7868 402.32 93.4492L400.55 92.5195C399.939 93.6819 399.247 94.5738 398.487 95.2251L399.789 96.7436ZM402.314 93.461L408.033 82.9142L406.275 81.9608L400.556 92.5077L402.314 93.461ZM409.394 38.39L413.425 75.2338L415.413 75.0162L411.382 38.1725L409.394 38.39ZM413.421 75.065L412.531 89.8775L414.527 89.9975L415.418 75.185L413.421 75.065ZM413.474 88.939L404.006 89.4546L404.114 91.4516L413.583 90.936L413.474 88.939ZM405.047 90.2917L396.516 38.1199L394.542 38.4426L403.073 90.6145L405.047 90.2917ZM395.529 39.2812H410.388V37.2812H395.529V39.2812ZM460.169 48.8281L461.155 48.9992L461.163 48.9494L461.167 48.8991L460.169 48.8281ZM449.81 108.5V109.5H450.651L450.795 108.671L449.81 108.5ZM435.513 108.5L434.528 108.329L434.325 109.5H435.513V108.5ZM447.701 38.2812V37.2812H446.859L446.715 38.1102L447.701 38.2812ZM460.919 38.2812L461.917 38.3522L461.993 37.2812H460.919V38.2812ZM488.294 62.7969L489.284 62.9383L489.287 62.9163L489.29 62.8942L488.294 62.7969ZM488.154 63.7812L487.164 63.6398L487.162 63.6547L487.16 63.6697L488.154 63.7812ZM486.044 73.0625L486.99 73.3873L486.991 73.3844L486.044 73.0625ZM481.732 81.5938L480.912 81.0209L480.908 81.0276L481.732 81.5938ZM475.076 87.8281L475.575 88.6945L475.583 88.6901L475.076 87.8281ZM465.701 89.9844L465.671 90.9839L465.674 90.984L465.701 89.9844ZM457.872 87.4531L457.248 88.234L457.254 88.2393L457.261 88.2444L457.872 87.4531ZM453.091 81.2656L452.182 81.6811L452.184 81.6854L453.091 81.2656ZM450.138 65L449.145 64.8818L449.14 64.9285L449.138 64.9756L450.138 65ZM450.372 63.0312L449.388 62.8562L449.383 62.8845L449.379 62.913L450.372 63.0312ZM452.763 54.2656L451.826 53.9177L451.822 53.9262L452.763 54.2656ZM472.497 37.2969L472.469 38.2965L472.47 38.2965L472.497 37.2969ZM481.029 39.7812L480.453 40.5989L480.461 40.6043L481.029 39.7812ZM486.044 45.8281L485.132 46.2385L485.137 46.2479L486.044 45.8281ZM473.904 63.7344L474.896 63.8559L474.898 63.8404L474.9 63.8249L473.904 63.7344ZM473.997 62.7031L474.993 62.7937L474.995 62.7798L473.997 62.7031ZM474.185 58.5312L473.186 58.4921L473.185 58.5017L473.185 58.5113L474.185 58.5312ZM471.982 50.2344L471.229 50.8929L471.235 50.8994L471.241 50.9059L471.982 50.2344ZM467.997 48.6406L468.033 47.6412L468.03 47.6412L467.997 48.6406ZM457.591 56.5625L456.646 56.2347L456.643 56.2434L456.641 56.2521L457.591 56.5625ZM456.466 61.3438L455.477 61.1945L455.476 61.206L455.474 61.2175L456.466 61.3438ZM455.81 66.5L454.818 66.3737L454.816 66.3871L454.815 66.4005L455.81 66.5ZM455.904 72.0781L454.913 72.2125L454.914 72.222L454.916 72.2315L455.904 72.0781ZM457.919 76.6719L457.157 77.3195L457.166 77.3298L457.175 77.3398L457.919 76.6719ZM462.935 78.5938L462.967 77.5943L462.963 77.5941L462.935 78.5938ZM467.81 77.2812L468.391 78.095L468.395 78.0924L467.81 77.2812ZM471.044 73.5312L470.169 73.0486L470.165 73.0556L470.161 73.0625L471.044 73.5312ZM472.966 68.6562L473.935 68.9029L473.936 68.8988L472.966 68.6562ZM459.184 48.6571L448.825 108.329L450.795 108.671L461.155 48.9992L459.184 48.6571ZM449.81 107.5H435.513V109.5H449.81V107.5ZM436.498 108.671L448.686 38.4523L446.715 38.1102L434.528 108.329L436.498 108.671ZM447.701 39.2812H460.919V37.2812H447.701V39.2812ZM459.922 38.2103L459.172 48.7572L461.167 48.8991L461.917 38.3522L459.922 38.2103ZM487.304 62.6555L487.164 63.6398L489.144 63.9227L489.284 62.9383L487.304 62.6555ZM487.16 63.6697C486.825 66.6557 486.139 69.679 485.098 72.7406L486.991 73.3844C488.075 70.196 488.795 67.0318 489.147 63.8928L487.16 63.6697ZM485.099 72.7377C484.065 75.7463 482.669 78.5061 480.912 81.021L482.552 82.1665C484.419 79.4939 485.898 76.5662 486.99 73.3873L485.099 72.7377ZM480.908 81.0276C479.207 83.5034 477.096 85.4795 474.569 86.9662L475.583 88.6901C478.368 87.0518 480.694 84.8716 482.556 82.1599L480.908 81.0276ZM474.576 86.9618C472.105 88.3862 469.169 89.0745 465.727 88.9847L465.674 90.984C469.42 91.0817 472.733 90.3326 475.575 88.6945L474.576 86.9618ZM465.73 88.9848C462.74 88.896 460.347 88.1012 458.484 86.6618L457.261 88.2444C459.523 89.9926 462.349 90.8853 465.671 90.9839L465.73 88.9848ZM458.497 86.6723C456.594 85.1498 455.094 83.2137 453.999 80.8458L452.184 81.6854C453.401 84.3176 455.088 86.5065 457.248 88.234L458.497 86.6723ZM454.001 80.8501C452.885 78.4069 452.113 75.7934 451.689 73.0058L449.712 73.3067C450.163 76.2691 450.985 79.0619 452.182 81.6811L454.001 80.8501ZM451.689 73.0058C451.259 70.1811 451.077 67.5212 451.138 65.0244L449.138 64.9756C449.074 67.6038 449.267 70.3814 449.712 73.3067L451.689 73.0058ZM451.131 65.1182L451.365 63.1495L449.379 62.913L449.145 64.8818L451.131 65.1182ZM451.357 63.2063C451.846 60.4563 452.627 57.5895 453.704 54.605L451.822 53.9262C450.712 57.0042 449.899 59.9812 449.388 62.8562L451.357 63.2063ZM453.701 54.6136C454.797 51.6602 456.226 48.9235 457.989 46.4009L456.35 45.2553C454.487 47.9202 452.979 50.8085 451.826 53.9177L453.701 54.6136ZM457.989 46.4009C459.73 43.9101 461.806 41.9117 464.218 40.3931L463.152 38.7006C460.502 40.3695 458.234 42.5586 456.35 45.2553L457.989 46.4009ZM464.218 40.3931C466.562 38.9171 469.299 38.2076 472.469 38.2965L472.525 36.2973C469.008 36.1986 465.87 36.9891 463.152 38.7006L464.218 40.3931ZM472.47 38.2965C475.797 38.3864 478.435 39.1775 480.453 40.5989L481.604 38.9636C479.185 37.26 476.136 36.3948 472.524 36.2972L472.47 38.2965ZM480.461 40.6043C482.527 42.0301 484.081 43.9019 485.132 46.2385L486.956 45.4178C485.758 42.7544 483.968 40.5949 481.597 38.9582L480.461 40.6043ZM485.137 46.2479C486.243 48.6403 486.951 51.2671 487.253 54.1359L489.242 53.9266C488.919 50.8579 488.158 48.0159 486.952 45.4083L485.137 46.2479ZM487.253 54.1359C487.559 57.0398 487.574 59.8939 487.299 62.6995L489.29 62.8942C489.578 59.9498 489.561 56.9602 489.242 53.9266L487.253 54.1359ZM474.9 63.8249L474.993 62.7937L473.002 62.6126L472.908 63.6438L474.9 63.8249ZM474.995 62.7798C475.09 61.5379 475.153 60.1278 475.185 58.5512L473.185 58.5113C473.154 60.0597 473.092 61.4309 473 62.6264L474.995 62.7798ZM475.184 58.5704C475.25 56.8988 475.119 55.2843 474.788 53.7294L472.832 54.1456C473.126 55.5282 473.245 56.9762 473.186 58.4921L475.184 58.5704ZM474.788 53.7294C474.443 52.1079 473.761 50.708 472.723 49.5629L471.241 50.9059C472.016 51.7607 472.552 52.8296 472.832 54.1456L474.788 53.7294ZM472.734 49.5759C471.622 48.3042 469.992 47.71 468.033 47.6412L467.962 49.64C469.566 49.6963 470.592 50.1645 471.229 50.8929L472.734 49.5759ZM468.03 47.6412C465.998 47.5745 464.196 47.9054 462.667 48.6879L463.578 50.4684C464.736 49.8758 466.184 49.5817 467.965 49.6401L468.03 47.6412ZM462.667 48.6879C461.186 49.4457 459.942 50.4997 458.945 51.8408L460.55 53.0342C461.365 51.9378 462.372 51.0855 463.578 50.4684L462.667 48.6879ZM458.945 51.8408C457.974 53.1467 457.209 54.6136 456.646 56.2347L458.536 56.8903C459.036 55.4489 459.708 54.1658 460.55 53.0342L458.945 51.8408ZM456.641 56.2521C456.123 57.838 455.735 59.4857 455.477 61.1945L457.455 61.493C457.697 59.8893 458.06 58.3495 458.542 56.8729L456.641 56.2521ZM455.474 61.2175L454.818 66.3737L456.802 66.6263L457.458 61.47L455.474 61.2175ZM454.815 66.4005C454.62 68.3523 454.652 70.2902 454.913 72.2125L456.895 71.9438C456.655 70.1785 456.625 68.3977 456.805 66.5995L454.815 66.4005ZM454.916 72.2315C455.222 74.2043 455.962 75.9127 457.157 77.3195L458.681 76.0242C457.752 74.9311 457.148 73.5769 456.892 71.9248L454.916 72.2315ZM457.175 77.3398C458.512 78.83 460.489 79.5262 462.907 79.5934L462.963 77.5941C460.881 77.5363 459.514 76.9513 458.664 76.004L457.175 77.3398ZM462.903 79.5932C465.014 79.6613 466.866 79.1842 468.391 78.095L467.229 76.4675C466.129 77.2533 464.731 77.6512 462.967 77.5943L462.903 79.5932ZM468.395 78.0924C469.869 77.0298 471.047 75.6603 471.928 74L470.161 73.0625C469.417 74.4647 468.439 75.5952 467.225 76.4701L468.395 78.0924ZM471.92 74.0139C472.806 72.4072 473.477 70.7028 473.935 68.9029L471.997 68.4096C471.58 70.0472 470.971 71.5928 470.169 73.0486L471.92 74.0139ZM473.936 68.8988C474.382 67.1154 474.703 65.4341 474.896 63.8559L472.911 63.6128C472.729 65.0972 472.425 66.6971 471.996 68.4137L473.936 68.8988ZM525.138 38.2812L526.123 38.4566L526.332 37.2812H525.138V38.2812ZM523.31 48.5469V49.5469H524.148L524.294 48.7222L523.31 48.5469ZM494.107 48.5469L493.122 48.3759L492.918 49.5469H494.107V48.5469ZM495.888 38.2812V37.2812H495.047L494.903 38.1103L495.888 38.2812ZM504.747 25.7188V24.7188H503.902L503.761 25.5528L504.747 25.7188ZM519.044 25.7188L520.03 25.888L520.231 24.7188H519.044V25.7188ZM510.888 73.2031L509.903 73.0338L509.898 73.0616L509.895 73.0896L510.888 73.2031ZM510.888 75.9219L509.903 76.0932L509.906 76.1138L509.911 76.1343L510.888 75.9219ZM511.919 77.6094L511.312 78.4037L511.338 78.4234L511.365 78.4414L511.919 77.6094ZM514.497 78.2656L514.443 79.2642L514.452 79.2646L514.497 78.2656ZM516.513 78.2188L516.608 79.2142L516.631 79.212L516.655 79.2087L516.513 78.2188ZM518.482 77.9844L519.477 78.08L519.593 76.874L518.387 76.9889L518.482 77.9844ZM517.451 88.7188L517.753 89.672L518.383 89.4722L518.446 88.8144L517.451 88.7188ZM513.513 89.6094L513.375 88.619L513.372 88.6194L513.513 89.6094ZM509.482 89.8906L509.462 90.8904L509.472 90.8906H509.482V89.8906ZM501.794 87.9688L501.27 88.8205L501.28 88.8262L501.794 87.9688ZM497.388 82.7188L496.454 83.0769L496.457 83.0846L496.461 83.0924L497.388 82.7188ZM496.497 74.75L495.511 74.5841L495.505 74.6207L495.502 74.6576L496.497 74.75ZM524.154 38.1059L522.325 48.3716L524.294 48.7222L526.123 38.4566L524.154 38.1059ZM523.31 47.5469H494.107V49.5469H523.31V47.5469ZM495.092 48.7178L496.873 38.4522L494.903 38.1103L493.122 48.3759L495.092 48.7178ZM495.888 39.2812H525.138V37.2812H495.888V39.2812ZM504.747 26.7188H519.044V24.7188H504.747V26.7188ZM518.059 25.5495L509.903 73.0338L511.874 73.3724L520.03 25.888L518.059 25.5495ZM509.895 73.0896C509.764 74.2352 509.755 75.2456 509.903 76.0932L511.873 75.7505C511.771 75.1607 511.763 74.3586 511.882 73.3167L509.895 73.0896ZM509.911 76.1343C510.112 77.0599 510.573 77.8388 511.312 78.4037L512.527 76.815C512.203 76.5675 511.977 76.2213 511.865 75.7094L509.911 76.1343ZM511.365 78.4414C512.148 78.9635 513.22 79.1981 514.443 79.2642L514.551 77.2671C513.462 77.2082 512.816 77.0052 512.474 76.7773L511.365 78.4414ZM514.452 79.2646C515.184 79.2979 515.903 79.2814 516.608 79.2142L516.418 77.2233C515.811 77.2811 515.186 77.2959 514.543 77.2667L514.452 79.2646ZM516.655 79.2087C517.295 79.1171 517.936 79.0409 518.577 78.9799L518.387 76.9889C517.715 77.0529 517.043 77.1329 516.372 77.2288L516.655 79.2087ZM517.486 77.8887L516.455 88.6231L518.446 88.8144L519.477 78.08L517.486 77.8887ZM517.148 87.7655C515.921 88.1546 514.664 88.4392 513.375 88.619L513.651 90.5998C515.05 90.4046 516.418 90.0954 517.753 89.672L517.148 87.7655ZM513.372 88.6194C512.108 88.8 510.811 88.8906 509.482 88.8906V90.8906C510.902 90.8906 512.293 90.7938 513.655 90.5993L513.372 88.6194ZM509.502 88.8908C506.531 88.8308 504.152 88.2169 502.309 87.1113L501.28 88.8262C503.5 90.1581 506.246 90.8254 509.462 90.8904L509.502 88.8908ZM502.318 87.1171C500.473 85.9812 499.143 84.4004 498.316 82.3451L496.461 83.0924C497.445 85.5371 499.054 87.4563 501.27 88.8204L502.318 87.1171ZM498.322 82.3606C497.514 80.2537 497.223 77.7575 497.493 74.8424L495.502 74.6576C495.21 77.805 495.513 80.6213 496.454 83.0769L498.322 82.3606ZM497.484 74.9159L505.734 25.8847L503.761 25.5528L495.511 74.5841L497.484 74.9159ZM524.107 64.4375L523.111 64.3427L523.111 64.347L524.107 64.4375ZM524.201 63.4531L523.207 63.3418L523.206 63.35L523.205 63.3583L524.201 63.4531ZM550.826 37.3438L550.801 38.3435L550.809 38.3436L550.826 37.3438ZM560.388 39.5469L559.924 40.433L559.937 40.4392L560.388 39.5469ZM571.216 64.1094L572.21 64.2217L572.211 64.2108L572.212 64.1999L571.216 64.1094ZM554.904 88.1094L555.294 89.03L555.302 89.0266L554.904 88.1094ZM544.544 89.9375L544.569 88.9378L544.561 88.9376L544.544 89.9375ZM534.982 87.7812L534.526 88.6715L534.531 88.6736L534.982 87.7812ZM538.497 63.4531L537.504 63.3385L537.503 63.3484L537.502 63.3583L538.497 63.4531ZM538.404 64.4375L537.408 64.3427L537.407 64.3568L537.406 64.371L538.404 64.4375ZM538.263 68.9844H537.263V68.9942L537.263 69.004L538.263 68.9844ZM538.919 73.5781L537.956 73.8447L537.958 73.8542L537.961 73.8636L538.919 73.5781ZM541.076 77.1875L540.392 77.917L540.403 77.928L540.415 77.9387L541.076 77.1875ZM545.388 78.6406L545.354 79.6401L545.357 79.6401L545.388 78.6406ZM553.826 73.9062L552.97 73.3891L552.966 73.3944L553.826 73.9062ZM555.888 69.0781L554.928 68.7988L554.926 68.8069L554.923 68.815L555.888 69.0781ZM556.872 64.0625L557.868 64.1582L557.868 64.1573L556.872 64.0625ZM556.966 63.0781L557.962 63.1729L557.962 63.1687L556.966 63.0781ZM557.107 58.5781H556.107V58.5877L556.107 58.5974L557.107 58.5781ZM556.451 53.8906L555.485 54.152L555.489 54.1641L555.492 54.1761L556.451 53.8906ZM554.294 50.2344L553.61 50.9632L553.616 50.9688L553.622 50.9743L554.294 50.2344ZM549.982 48.6875L550.016 47.6881L550.013 47.688L549.982 48.6875ZM544.872 49.9531L544.331 49.1125L544.322 49.1182L544.872 49.9531ZM539.482 58.4375L540.447 58.7006L540.448 58.6962L539.482 58.4375ZM525.102 64.5323L525.196 63.5479L523.205 63.3583L523.111 64.3427L525.102 64.5323ZM525.194 63.5645C525.59 60.0326 526.457 56.7228 527.791 53.6305L525.954 52.8383C524.538 56.1209 523.624 59.6236 523.207 63.3418L525.194 63.5645ZM527.791 53.6305C529.121 50.5457 530.886 47.8488 533.083 45.5318L531.631 44.1557C529.265 46.6512 527.374 49.548 525.954 52.8383L527.791 53.6305ZM533.083 45.5318C535.27 43.2249 537.845 41.4271 540.818 40.136L540.021 38.3015C536.806 39.6979 534.007 41.6501 531.631 44.1557L533.083 45.5318ZM540.818 40.136C543.761 38.8577 547.082 38.2528 550.801 38.3435L550.85 36.344C546.881 36.2472 543.265 36.8923 540.021 38.3015L540.818 40.136ZM550.809 38.3436C554.374 38.404 557.402 39.1128 559.924 40.4329L560.852 38.6608C558 37.1684 554.653 36.4085 550.843 36.3439L550.809 38.3436ZM559.937 40.4392C562.519 41.7452 564.613 43.5175 566.234 45.7581L567.854 44.5856C566.039 42.0763 563.695 40.0986 560.839 38.6545L559.937 40.4392ZM566.234 45.7581C567.87 48.0182 569.036 50.6135 569.727 53.5566L571.674 53.0996C570.927 49.9178 569.656 47.0755 567.854 44.5856L566.234 45.7581ZM569.727 53.5566C570.419 56.505 570.618 59.6466 570.314 62.9876L572.306 63.1687C572.627 59.6347 572.42 56.2762 571.674 53.0996L569.727 53.5566ZM570.314 62.9876L570.22 64.0188L572.212 64.1999L572.306 63.1687L570.314 62.9876ZM570.223 63.997C569.827 67.4938 568.947 70.769 567.584 73.8274L569.411 74.6413C570.861 71.3873 571.793 67.9124 572.21 64.2217L570.223 63.997ZM567.584 73.8274C566.223 76.8833 564.442 79.551 562.245 81.8385L563.687 83.224C566.053 80.7615 567.96 77.898 569.411 74.6413L567.584 73.8274ZM562.245 81.8385C560.058 84.1157 557.481 85.8998 554.505 87.1922L555.302 89.0266C558.514 87.6314 561.312 85.6968 563.687 83.224L562.245 81.8385ZM554.513 87.1888C551.567 88.4386 548.258 89.0285 544.569 88.9378L544.52 90.9372C548.456 91.034 552.053 90.4051 555.294 89.03L554.513 87.1888ZM544.561 88.9376C541.026 88.8772 537.993 88.1834 535.433 86.8889L534.531 88.6736C537.408 90.1291 540.75 90.8728 544.527 90.9374L544.561 88.9376ZM535.437 86.891C532.883 85.5841 530.802 83.825 529.179 81.6118L527.566 82.7945C529.381 85.2688 531.706 87.2284 534.526 88.6715L535.437 86.891ZM529.179 81.6118C527.545 79.3835 526.379 76.8205 525.689 73.9099L523.743 74.3713C524.491 77.5233 525.763 80.3353 527.566 82.7945L529.179 81.6118ZM525.689 73.9099C524.998 70.9945 524.799 67.8695 525.103 64.528L523.111 64.347C522.79 67.8805 522.997 71.2242 523.743 74.3713L525.689 73.9099ZM537.502 63.3583L537.408 64.3427L539.399 64.5323L539.493 63.5479L537.502 63.3583ZM537.406 64.371C537.311 65.8024 537.263 67.3405 537.263 68.9844H539.263C539.263 67.3783 539.309 65.8851 539.401 64.504L537.406 64.371ZM537.263 69.004C537.296 70.6774 537.526 72.2918 537.956 73.8447L539.883 73.3115C539.5 71.9269 539.293 70.4789 539.263 68.9648L537.263 69.004ZM537.961 73.8636C538.443 75.4816 539.248 76.8446 540.392 77.917L541.76 76.458C540.903 75.6554 540.271 74.6122 539.878 73.2926L537.961 73.8636ZM540.415 77.9387C541.672 79.043 543.359 79.5724 545.354 79.6401L545.422 77.6412C543.73 77.5838 542.542 77.1445 541.736 76.4363L540.415 77.9387ZM545.357 79.6401C547.511 79.7075 549.408 79.2707 550.987 78.2655L549.914 76.5782C548.743 77.323 547.265 77.6988 545.419 77.6411L545.357 79.6401ZM550.987 78.2655C552.501 77.3025 553.734 76.0143 554.685 74.4181L552.966 73.3944C552.167 74.7357 551.15 75.7913 549.914 76.5782L550.987 78.2655ZM554.682 74.4234C555.636 72.8428 556.36 71.1478 556.853 69.3412L554.923 68.815C554.479 70.446 553.827 71.9697 552.97 73.3891L554.682 74.4234ZM556.848 69.3575C557.364 67.5844 557.705 65.851 557.868 64.1582L555.877 63.9668C555.727 65.524 555.412 67.1343 554.928 68.7988L556.848 69.3575ZM557.868 64.1573L557.962 63.1729L555.971 62.9833L555.877 63.9677L557.868 64.1573ZM557.962 63.1687C558.091 61.7515 558.138 60.2143 558.107 58.5589L556.107 58.5974C556.138 60.1919 556.091 61.6548 555.97 62.9876L557.962 63.1687ZM558.107 58.5781C558.107 56.833 557.876 55.1737 557.409 53.6051L555.492 54.1761C555.9 55.545 556.107 57.0108 556.107 58.5781H558.107ZM557.416 53.6292C556.966 51.9669 556.155 50.5747 554.967 49.4944L553.622 50.9743C554.496 51.769 555.123 52.8143 555.485 54.152L557.416 53.6292ZM554.979 49.5055C553.723 48.3254 552.027 47.7562 550.016 47.6881L549.948 49.6869C551.624 49.7438 552.803 50.2059 553.61 50.9632L554.979 49.5055ZM550.013 47.688C547.851 47.6204 545.939 48.0764 544.331 49.1126L545.414 50.7937C546.619 50.0174 548.113 49.6296 549.951 49.687L550.013 47.688ZM544.322 49.1182C542.812 50.1138 541.582 51.433 540.634 53.0586L542.361 54.0664C543.163 52.692 544.183 51.605 545.423 50.7881L544.322 49.1182ZM540.634 53.0586C539.712 54.6387 539.007 56.3466 538.516 58.1788L540.448 58.6962C540.895 57.0284 541.533 55.4863 542.361 54.0664L540.634 53.0586ZM538.517 58.1744C538.036 59.9376 537.698 61.6591 537.504 63.3385L539.491 63.5677C539.672 61.9971 539.99 60.3749 540.447 58.7006L538.517 58.1744Z" fill="#20F0FF"/>
</g>
<rect y="56" width="70" height="70" transform="rotate(-45 0 56)" fill="#C3FAFE"/>
<path d="M24.4975 55.7487L49.2462 31L73.9949 55.7487L49.2462 80.4975L24.4975 55.7487Z" fill="black" fill-opacity="0.47"/>
<defs>
<filter id="filter0_d_2_7" x="98.2318" y="17" width="477.547" height="100.625" filterUnits="userSpaceOnUse" color-interpolation-filters="sRGB">
<feFlood flood-opacity="0" result="BackgroundImageFix"/>
<feColorMatrix in="SourceAlpha" type="matrix" values="0 0 0 0 0 0 0 0 0 0 0 0 0 0 0 0 0 0 127 0" result="hardAlpha"/>
<feOffset dy="4"/>
<feGaussianBlur stdDeviation="2"/>
<feComposite in2="hardAlpha" operator="out"/>
<feColorMatrix type="matrix" values="0 0 0 0 0 0 0 0 0 0 0 0 0 0 0 0 0 0 0.25 0"/>
<feBlend mode="normal" in2="BackgroundImageFix" result="effect1_dropShadow_2_7"/>
<feBlend mode="normal" in="SourceGraphic" in2="effect1_dropShadow_2_7" result="shape"/>
</filter>
</defs>
</svg>
